<svg viewBox="0 0 228.04 61.78" xmlns="http://www.w3.org/2000/svg" xmlns:xlink="http://www.w3.org/1999/xlink"><clipPath id="a" transform="translate(-6.89)"><path d="m84.88 10.28h36.17v15.54h-36.17z"/></clipPath><clipPath id="b" transform="translate(-6.89)"><path d="m103.08 25-10.61-12.25s-1.21-1.57 1.06-1.63 7.52 0 7.52 0a3.55 3.55 0 0 1 2.41 1.06c1.38 1.37 10.33 12.82 10.33 12.82z"/></clipPath><linearGradient id="c" gradientTransform="matrix(.01 -22.84 -22.84 -.01 11132.69 -560.68)" gradientUnits="userSpaceOnUse" x1="-25.72" x2="-24.91" y1="482.95" y2="482.95"><stop offset="0" stop-color="#b71548"/><stop offset=".99" stop-color="#d07680"/><stop offset="1" stop-color="#d07680"/></linearGradient><clipPath id="d" transform="translate(-6.89)"><path d="m77.03 24.22h44.03v23.96h-44.03z"/></clipPath><clipPath id="e" transform="translate(-6.89)"><path d="m113.79 25-18.32 21.3a4.57 4.57 0 0 1 -3.34 1.06h-7a1 1 0 0 1 -.75-.42c-.22-.31-.23-.76.32-1.5 1.12-1.44 17.61-20.44 17.61-20.44z"/></clipPath><linearGradient id="f" gradientTransform="matrix(20.28 -.01 -.01 -20.28 601.52 10316.14)" x1="-24.45" x2="-23.64" xlink:href="#c" y1="506.79" y2="506.79"/><path d="m230.74 35h4.2v-20.3h-3.78l-7.61 9.07-7.61-9.07h-3.77v20.3h4.19v-13.69l6.8 8.2h.75l6.83-8.2zm-36-20.35h-4.19v11.81c0 5.18 3.21 8.92 9.23 8.92s9.32-4.13 9.32-8.92v-11.76h-4.19v11.46c0 3.14-1.68 5.33-5.12 5.33s-5-2.07-5-5.3zm-11.54 20.35h4.19v-20.3h-4.19zm-9.34-8c1.83.51 2.9 1 2.9 2.16 0 1.35-1.38 2.28-3.83 2.28a12.13 12.13 0 0 1 -6.29-1.91l-1 4a16.17 16.17 0 0 0 7.19 1.77c4.91 0 8.3-2.6 8.3-6.44 0-2.9-1.8-4.58-5.48-5.63l-3.77-1.08c-1.47-.42-2.22-.87-2.22-2s1.08-2 3.66-2a12.78 12.78 0 0 1 6.26 1.85l1.2-3.92a16.71 16.71 0 0 0 -7.31-1.62c-5.6 0-8.15 2.78-8.15 6.17 0 2.75 1.59 4.64 4.67 5.45zm-26.25-2.1a6.35 6.35 0 1 1 12.7 0 6.35 6.35 0 1 1 -12.7 0m-4.13 0a10.48 10.48 0 0 0 21 0 10.48 10.48 0 1 0 -21 0m-8.42-6.56a3.51 3.51 0 0 1 3.72 3.74 3.54 3.54 0 0 1 -3.72 3.68h-4.88v-7.41zm-9.06 16.66h4.19v-5.58h5.54a7.08 7.08 0 0 0 7.4-7.3c0-5.09-3.41-7.42-7.4-7.42h-9.73z" fill="#151e37" transform="translate(-6.89)"/><path d="m102.37 25-9.9-12.26s-1.21-1.49 1.06-1.63 7.52 0 7.52 0a3.55 3.55 0 0 1 2.41 1.06c1.38 1.4 10.33 12.83 10.33 12.83z" fill="#b81548" transform="translate(-6.89)"/><path d="m113.79 25-18.32 21.31a4.57 4.57 0 0 1 -3.34 1.06h-7a.94.94 0 0 1 -.75-.42c-.22-.31-.23-.76.32-1.5 1.12-1.45 17.67-20.45 17.67-20.45z" fill="#b81548" transform="translate(-6.89)"/><g clip-path="url(#a)"><g clip-path="url(#b)"><path d="m89.39 5.48h26.27v25.1h-26.27z" fill="url(#c)" transform="matrix(.7714025 -.63634753 .63634753 .7714025 5.07 69.36)"/></g></g><g clip-path="url(#d)"><g clip-path="url(#e)"><path d="m81.04 17.66h35.92v37.06h-35.92z" fill="url(#f)" transform="matrix(.62415236 -.78130265 .78130265 .62415236 2.03 90.95)"/></g></g><g transform="translate(-6.89)"><path d="m115.13 24.22-4.35-5.37s2.17-2.7 2.58-3.22a3.41 3.41 0 0 1 2.47-1.16h5.17a1 1 0 0 1 .92.6.91.91 0 0 1 -.15 1c-1.05 1.25-6.66 8.16-6.66 8.16" fill="#151e37"/><path d="m115.13 26.42-4.35 5.26 1.62 2.25a4.1 4.1 0 0 0 2.88 1.43h4.93a1 1 0 0 0 .78-1.58c-.79-1-5.85-7.35-5.85-7.35" fill="#151e37"/><path d="m91.73 35.35v-3.69h-12.1v-4.91h9.91v-3.68h-9.91v-4.4h12.1v-3.67h-16.11v20.35zm-23.66 0h4.19v-20.35h-3.77l-7.61 9.07-7.6-9.07h-3.77v20.35h4.19v-13.75l6.8 8.2h.75l6.83-8.2zm-37.49-10.16a6.35 6.35 0 1 1 12.7 0 6.35 6.35 0 1 1 -12.7 0m-4.13 0a10.22 10.22 0 0 0 10.45 10.45 10.23 10.23 0 0 0 10.51-10.45 10.25 10.25 0 0 0 -10.51-10.51 10.23 10.23 0 0 0 -10.45 10.51" fill="#151e37"/><path d="m24.32 17.75c-1.37-2-3.72-3.06-6.94-3.06-6 0-10.48 3.89-10.48 10.51s4.46 10.45 10.48 10.45a12.65 12.65 0 0 0 8.36-3.29l-2-3.14a9.54 9.54 0 0 1 -6.29 2.55c-3.74 0-6.23-2.4-6.23-6.56s2.49-6.62 6.08-6.62a4.21 4.21 0 0 1 3.6 1.55z" fill="#151e37"/></g></svg>