<svg xmlns="http://www.w3.org/2000/svg" viewBox="0 0 600 300"><defs><style>.a{fill:#ec4544;}.b{fill:#00303c;}.c{isolation:isolate;}.d{fill:#6ba2b9;}</style></defs><title>Plan de travail 1</title><path class="a" d="M45.08,25.08A13.33,13.33,0,0,1,41,34.85a13.34,13.34,0,0,1-9.78,4.09,13.34,13.34,0,0,1-9.78-4.09,13.33,13.33,0,0,1-4.09-9.78,13.35,13.35,0,0,1,4.09-9.78,13.73,13.73,0,0,1,19.42-.13l.14.14A13.35,13.35,0,0,1,45.08,25.08Zm-25,38.71a11.12,11.12,0,0,1,22.23,0V195a11.1,11.1,0,0,1-22.19,0Z"/><path class="b" d="M84.14,170.93a6.91,6.91,0,1,1-13.82,0V88a6.91,6.91,0,1,1,13.82,0v1.81a36.2,36.2,0,0,1,24.18-8.72,36.6,36.6,0,0,1,26.86,11.14,42.64,42.64,0,0,1,4.23,4.92,42.41,42.41,0,0,1,4.23-4.92,38,38,0,0,1,53.67-.05l.05.05a36.6,36.6,0,0,1,11.14,26.86v51.82a6.91,6.91,0,0,1-13.82,0v-51.8A24.19,24.19,0,0,0,153.4,102a23.31,23.31,0,0,0-7.08,17.1v51.82a6.91,6.91,0,0,1-13.82,0V119.11a24.18,24.18,0,1,0-48.36,0Z"/><path class="b" d="M297.3,154.35a7,7,0,0,1,4.91,11.83,48.38,48.38,0,1,1,2.68-70.91A46.62,46.62,0,0,1,319,129.47a6.93,6.93,0,0,1-6.91,6.91h-75.4a34.71,34.71,0,0,0,34,27.62A32.6,32.6,0,0,0,293,155.82,6.89,6.89,0,0,1,297.3,154.35Zm7.34-31.78a34.67,34.67,0,0,0-67.89,0Z"/><path class="b" d="M415.8,46.39a6.91,6.91,0,1,1,13.82,0v83.09a48.37,48.37,0,1,1-96.73,1.39q0-.69,0-1.39a48.37,48.37,0,0,1,82.57-34.2l.34.35Zm0,83.09A34.55,34.55,0,1,0,405.66,154,34.55,34.55,0,0,0,415.8,129.48Z"/><path class="b" d="M465.89,60.38a8.7,8.7,0,1,1-2.55-6.09A8.31,8.31,0,0,1,465.89,60.38ZM450.34,88a6.91,6.91,0,0,1,13.82,0v82.92a6.91,6.91,0,0,1-13.82,0Z"/><path class="b" d="M567.81,163.33q-14.51,14.51-34.55,14.51a48.36,48.36,0,0,1-48.37-48.35v0a48.37,48.37,0,1,1,96.73-1.39q0,.7,0,1.39v41.46a6.91,6.91,0,1,1-13.82,0Zm-34.55-68.4a34.5,34.5,0,0,0-34.55,34.45s0,.07,0,.1a34.55,34.55,0,1,0,59-24.44A33.29,33.29,0,0,0,533.26,94.93Z"/><g class="c"><path class="d" d="M21.15,280.9v-5.26h4.64V229.71H21.15v-5.26H42a31.83,31.83,0,0,1,9.2,1.12,10.47,10.47,0,0,1,5.37,3.36,12.48,12.48,0,0,1,2.32,4.49,22.26,22.26,0,0,1,.58,5.49A18.58,18.58,0,0,1,58,246.84q-1.51,3.21-5.84,4.83a15.37,15.37,0,0,1,5.26,2.09,9.24,9.24,0,0,1,3.13,3.36,13.37,13.37,0,0,1,1.39,4,28,28,0,0,1,.35,4.72,24.52,24.52,0,0,1-.58,5.76,13,13,0,0,1-2.32,4.68A10.43,10.43,0,0,1,54,279.74a30.78,30.78,0,0,1-9.2,1.16Zm20.72-32q5.64,0,7.66-2.24t2-6.81q0-4.64-2-6.88t-7.66-2.24H33.76v18.17Zm2.71,25.75q5.64,0,7.69-2.4t2-7.19q0-4.95-2-7.38t-7.73-2.44H33.76v19.41Z"/><path class="d" d="M82.55,244.17a18.63,18.63,0,0,1,15.62-8.58v7q-10.13.39-15,7.81v25.29h6.19v5.26H70.72v-5.26h4.64V241.93H70.72v-5.26h8.89Z"/><path class="d" d="M131,276.49A23.66,23.66,0,0,1,116,282q-7,0-10-3.17t-3-9.2q0-6.73,2.86-9.82t11-3.71l12.6-.77v-6.88a5.7,5.7,0,0,0-2.32-5.07,10.5,10.5,0,0,0-6-1.58q-5.41,0-7.46,2T111.4,250l-6.5-.31q.54-7.11,4.06-10.63t12.41-3.52q15.93,0,15.93,12.37v27.68h4.64v5.26H132.2Zm-1.47-5.1V260.79l-11.14.7q-4.56.23-6.15,1.89t-1.59,6q0,3.48,1.7,5.1T118,276.1A16.09,16.09,0,0,0,129.49,271.39Z"/><path class="d" d="M150.76,236.67h8.89l2.4,4.41a26.54,26.54,0,0,1,15.78-5.49q13.38,0,13.38,14v26.06h4.64v5.26H179v-5.26h4.33V250q0-4.48-1.66-6.38T176,241.77a20.5,20.5,0,0,0-12.84,4.79v29.08h4.33v5.26H150.76v-5.26h4.64V241.93h-4.64Z"/><path class="d" d="M234.27,277a20.71,20.71,0,0,1-13.3,5,20,20,0,0,1-7.62-1.32,13.55,13.55,0,0,1-5-3.33,13.78,13.78,0,0,1-2.82-5.26,32.36,32.36,0,0,1-1.32-6.23,81.27,81.27,0,0,1,0-14.15,30.76,30.76,0,0,1,1.35-6.22,14.23,14.23,0,0,1,2.86-5.26,13.55,13.55,0,0,1,5.07-3.33,20.57,20.57,0,0,1,7.73-1.31,32.84,32.84,0,0,1,11.37,2.17v-9h-4.64v-5.26h12.45v52.12H245v5.26H235.2Zm-1.7-4.72V243.63a26,26,0,0,0-9.59-1.86,13.33,13.33,0,0,0-4.91.81,8.49,8.49,0,0,0-3.29,2.2,9.72,9.72,0,0,0-1.93,3.67,23.85,23.85,0,0,0-.93,4.64q-.23,2.36-.23,5.68t.23,5.57a25.83,25.83,0,0,0,.89,4.6,10,10,0,0,0,1.86,3.71,8.28,8.28,0,0,0,3.25,2.28,12.77,12.77,0,0,0,4.91.85A15.36,15.36,0,0,0,232.57,272.24Z"/><path class="d" d="M273.4,280.9V263.27h5.72q.15,6,3.56,9.16t10,3.21q6.19,0,9-2.17t2.78-7q0-4.64-2-6.57t-7.38-3l-6.5-1.24q-8.12-1.62-11.33-5.1T274,239.68q0-8,3.91-12.14t13.18-4.18q10,0,14.15,6v-4.95H311v15.23h-5.72q-1-10-12.45-10-6.19,0-8.51,2.4T282,239.53q0,4.25,1.74,6.07t7.38,3l6.26,1.24q8.27,1.7,11.64,5.07t3.36,10.79q0,8-4.21,12.18T294.36,282q-10.52,0-15.23-6.65v5.57Z"/><path class="d" d="M332.48,236.67v30.62q0,4.49,1.78,6.5t6.11,2a20.52,20.52,0,0,0,13-4.95V241.93h-4.64v-5.26h12.45v39h4.64v5.26H356l-1.78-4.49A27.27,27.27,0,0,1,338,282q-7.27,0-10.32-3.48t-3.05-10.36V241.93H320v-5.26h12.45Z"/><path class="d" d="M401.77,275.64h4.33V250.28q0-4.25-1.74-6.38t-5.84-2.13a17.26,17.26,0,0,0-11.45,4.41v29.46h4.64v5.26H374.62v-5.26h4.64V241.93h-4.64v-5.26h9.2l2,4.18a21.53,21.53,0,0,1,13.92-5.26q9,0,12.37,5.88a23.16,23.16,0,0,1,6.73-4.21,20.52,20.52,0,0,1,8-1.66q13.92,0,13.92,13.92v26.14h4.64v5.26H428.29v-5.26h4.64V250.28q0-4.17-1.7-6.34t-5.72-2.17a17.68,17.68,0,0,0-11.83,4.79,17.82,17.82,0,0,1,.23,2.94v26.14h4.41v5.26H401.77Z"/><path class="d" d="M481.42,275.64h4.33V250.28q0-4.25-1.74-6.38t-5.84-2.13a17.26,17.26,0,0,0-11.45,4.41v29.46h4.64v5.26H454.27v-5.26h4.64V241.93h-4.64v-5.26h9.2l2,4.18a21.53,21.53,0,0,1,13.92-5.26q9,0,12.37,5.88a23.16,23.16,0,0,1,6.73-4.21,20.52,20.52,0,0,1,8-1.66q13.92,0,13.92,13.92v26.14h4.64v5.26H507.94v-5.26h4.64V250.28q0-4.17-1.7-6.34t-5.72-2.17a17.68,17.68,0,0,0-11.83,4.79,17.82,17.82,0,0,1,.23,2.94v26.14H498v5.26H481.42Z"/><path class="d" d="M533.92,236.67h12.45v39H551v5.26H533.92v-5.26h4.64V241.93h-4.64Zm5.49-7.08a3.32,3.32,0,0,1-1.28-1.86,13.78,13.78,0,0,1-.19-2.59,14.33,14.33,0,0,1,.19-2.67,3.33,3.33,0,0,1,1.28-1.86,4.75,4.75,0,0,1,3.09-.89,6.86,6.86,0,0,1,2.63.42,2.51,2.51,0,0,1,1.39,1.32,6.78,6.78,0,0,1,.5,1.66,14.12,14.12,0,0,1,.12,2A12.6,12.6,0,0,1,547,227a7.51,7.51,0,0,1-.5,1.66,2.48,2.48,0,0,1-1.39,1.35,6.82,6.82,0,0,1-2.63.43A4.75,4.75,0,0,1,539.41,229.59Z"/><path class="d" d="M556.89,236.67h7v-8.82l7.81-1.08v9.9h8.12v5.26h-8.12v27.92q0,3.48,1,4.87a3.63,3.63,0,0,0,3.21,1.39,20.11,20.11,0,0,0,4.1-.62l.93,5.1a24.21,24.21,0,0,1-7.58,1.39,12,12,0,0,1-4.41-.74,7.58,7.58,0,0,1-2.82-1.78,6.79,6.79,0,0,1-1.47-2.78,16.31,16.31,0,0,1-.62-3.05q-.12-1.32-.12-3.33V241.93h-7Z"/></g><path class="d" d="M550.63,202.93a3.19,3.19,0,0,1-2.5,1.05H73.35a3.54,3.54,0,0,1,0-7.09H548.13a3.53,3.53,0,0,1,2.5,6Z"/><path class="d" d="M580,204.87a6.18,6.18,0,1,1,1.88-4.44A5.8,5.8,0,0,1,580,204.87Z"/></svg>