<svg enable-background="new 0 0 252.1 110.4" viewBox="0 0 252.1 110.4" xmlns="http://www.w3.org/2000/svg" xmlns:xlink="http://www.w3.org/1999/xlink"><linearGradient id="a" gradientTransform="matrix(0 .0788 5.9865 -.0009 -6094.4702 -701.6995)" gradientUnits="userSpaceOnUse" x1="10002.6465" x2="10318.9961" y1="1039.1686" y2="1039.1686"><stop offset="0" stop-color="#ce6f75"/><stop offset=".3993" stop-color="#c34457"/><stop offset=".7915" stop-color="#ba203e"/><stop offset="1" stop-color="#b71234"/></linearGradient><path d="m1.1 110.5v-24.9h250.8v24.9z" fill="url(#a)"/><path d="m78.3 105.1v-14h7.4c2.7 0 4 1.7 4 3.6 0 1.8-1.1 2.9-2.4 3.2 1.5.2 2.7 1.7 2.7 3.4 0 2.1-1.4 3.8-4.1 3.8zm8.3-9.9c0-.9-.6-1.5-1.6-1.5h-3.7v3h3.7c1 0 1.6-.7 1.6-1.5zm.3 5.7c0-.9-.6-1.6-1.8-1.6h-3.8v3.3h3.8c1.1-.1 1.8-.7 1.8-1.7z" fill="#fff"/><path d="m93.2 105.1v-14h3v14z" fill="#fff"/><path d="m109.7 105.1-.9-2.4h-6l-.9 2.4h-3.4l5.4-14h3.7l5.4 14zm-3.9-11.1-2.2 6h4.4z" fill="#fff"/><path d="m123.4 105.1-2.8-5h-2.2v5h-3v-14h6.6c2.9 0 4.7 1.9 4.7 4.5 0 2.5-1.6 3.8-3.1 4.2l3.1 5.3zm.3-9.5c0-1.2-.9-1.9-2.1-1.9h-3.1v3.8h3.1c1.2 0 2.1-.8 2.1-1.9z" fill="#fff"/><path d="m137.9 105.1-2.8-5h-2.1v5h-3v-14h6.6c2.9 0 4.7 1.9 4.7 4.5 0 2.5-1.6 3.8-3.1 4.2l3.1 5.3zm.3-9.5c0-1.2-.9-1.9-2.1-1.9h-3.1v3.8h3.1c1.2 0 2.1-.8 2.1-1.9z" fill="#fff"/><path d="m144.5 105.1v-14h3v14z" fill="#fff"/><path d="m154.6 105.1v-11.4h-4.1v-2.6h11.2v2.6h-4.1v11.4z" fill="#fff"/><path d="m164.1 105.1v-2.4l6.6-9h-6.6v-2.6h10.5v2.4l-6.6 9h6.8v2.6z" fill="#fff"/><path d="m124.7 18.6h-4.8v15h-2.8v-15h-4.8v-2.4h12.4z" fill="#353335"/><path d="m128.8 32.9c-1.1-.4-2-1.1-2.8-1.9s-1.4-1.7-1.9-2.8c-.4-1.1-.7-2.2-.7-3.4s.2-2.3.7-3.4c.4-1 1.1-2 1.9-2.8s1.7-1.4 2.8-1.9 2.2-.7 3.4-.7 2.3.2 3.4.7c1 .4 2 1.1 2.8 1.9s1.4 1.7 1.9 2.8c.4 1.1.7 2.2.7 3.4s-.2 2.3-.7 3.4c-.4 1.1-1.1 2-1.9 2.8s-1.7 1.4-2.8 1.9c-1.1.4-2.2.7-3.4.7s-2.4-.3-3.4-.7zm-.9-12.3c-1.1 1.1-1.8 2.6-1.8 4.2s.6 3.1 1.8 4.2c1.1 1.1 2.6 1.8 4.2 1.8s3.1-.6 4.2-1.8c1.1-1.1 1.8-2.6 1.8-4.2s-.6-3.1-1.8-4.2c-1.1-1.1-2.6-1.8-4.2-1.8-1.5 0-3.1.7-4.2 1.8z" fill="#353335"/><path d="m71.5 2.1v28.2l-27.7-30.2v11c2.8 3.8 4.5 8.5 4.5 13.6s-1.7 9.8-4.5 13.6v8.8h7v-26.5l28.2 30.7v-49.2z" fill="#b71234"/><path d="m108.4 40.7v6.4h-26.9v-44.9h26.9v6.4h-19.8v11.9h16.3v6.4h-16.5v13.8z" fill="#b71234"/><path d="m23.4 2.1c-12.3 0-22.3 10.1-22.3 22.6s10 22.6 22.4 22.6 22.4-10.1 22.4-22.6c-.1-12.5-10.1-22.6-22.5-22.6zm0 37.9c-8.4 0-15.3-6.9-15.3-15.3 0-8.5 6.9-15.3 15.3-15.3 8.5 0 15.3 6.9 15.3 15.3.1 8.4-6.8 15.3-15.3 15.3z" fill="#b71234"/><path d="m214.9 2.2v28.2l-27.7-30.3v11c2.8 3.8 4.5 8.5 4.5 13.6s-1.7 9.8-4.5 13.6v8.8h7.1v-26.4l28.2 30.6v-49.1z" fill="#b71234"/><path d="m251.8 40.7v6.4h-26.9v-44.9h26.9v6.4h-19.8v11.9h16.3v6.4h-16.5v13.8z" fill="#b71234"/><path d="m166.8 2.1c-12.4 0-22.4 10.1-22.4 22.6s10 22.6 22.4 22.6 22.4-10.1 22.4-22.6-10-22.6-22.4-22.6zm0 37.9c-8.5 0-15.3-6.9-15.3-15.3 0-8.5 6.9-15.3 15.3-15.3 8.5 0 15.3 6.9 15.3 15.3.1 8.4-6.8 15.3-15.3 15.3z" fill="#b71234"/><g fill="#353335"><path d="m1.2 77.7v-19h6c5.9 0 9.6 4.3 9.6 9.5 0 5.3-3.7 9.5-9.6 9.5zm14-9.5c0-4.4-2.8-8-7.9-8h-4.4v16h4.4c5 0 7.9-3.6 7.9-8z"/><path d="m20.6 77.7v-19h1.6v18.9h-1.6z"/><path d="m25.9 68.2c0-5.8 4.3-9.8 9.6-9.8 3.1 0 5.4 1.2 7.1 3.2l-1.2.9c-1.3-1.6-3.5-2.6-5.9-2.6-4.5 0-7.9 3.4-7.9 8.3s3.4 8.3 7.9 8.3c2.5 0 4.5-1.2 5.6-2.3v-4.5h-7.2v-1.4h8.8v6.6c-1.7 1.9-4.2 3.1-7.2 3.1-5.3 0-9.6-3.9-9.6-9.8z"/><path d="m46.5 77.7v-19h1.6v18.9h-1.6z"/><path d="m57.4 77.7v-17.5h-6.2v-1.5h14v1.5h-6.2v17.5z"/><path d="m80.1 77.7-1.9-4.7h-10l-1.9 4.7h-1.9l7.7-18.9h2l7.7 18.9zm-6.9-17.2-4.5 11.1h8.9z"/><path d="m84.4 77.7v-19h1.6v17.5h9.2v1.5z"/><path d="m121.6 77.7v-16.7l-6.9 16.7h-.6l-6.9-16.7v16.7h-1.6v-19h2.4l6.4 15.6 6.4-15.6h2.4v18.9h-1.6z"/><path d="m141.4 77.7-1.9-4.7h-10l-1.9 4.7h-1.9l7.7-18.9h2l7.7 18.9zm-6.9-17.2-4.5 11h8.9z"/><path d="m156.9 77.7-5.3-7.8h-4.2v7.8h-1.6v-19h7.1c3.3 0 5.8 2.1 5.8 5.5s-2.4 5.3-5.2 5.4l5.5 7.9zm0-13.4c0-2.4-1.7-4.1-4.2-4.1h-5.3v8.1h5.3c2.5.1 4.2-1.6 4.2-4z"/><path d="m173.9 77.7-7.8-8.9-2.1 2.3v6.6h-1.6v-19h1.6v10.4l9.1-10.4h2.1l-8.1 9 8.8 9.9z"/><path d="m178.7 77.7v-19h12v1.5h-10.4v7h10.2v1.5h-10.2v7.5h10.4v1.5z"/><path d="m199.2 77.7v-17.5h-6.2v-1.5h14v1.5h-6.2v17.5z"/><path d="m210.1 77.7v-19h1.6v18.9h-1.6z"/><path d="m229.7 77.7-11.9-16.3v16.3h-1.6v-19h1.6l11.9 16v-16h1.6v18.9h-1.6z"/><path d="m235 68.2c0-5.8 4.3-9.8 9.6-9.8 3.1 0 5.4 1.2 7.1 3.2l-1.2.9c-1.3-1.6-3.5-2.6-5.9-2.6-4.5 0-7.9 3.4-7.9 8.3s3.4 8.3 7.9 8.3c2.5 0 4.5-1.2 5.6-2.3v-4.5h-7.2v-1.4h8.8v6.6c-1.7 1.9-4.2 3.1-7.2 3.1-5.3 0-9.6-3.9-9.6-9.8z"/></g></svg>