<svg viewBox="0 0 183.59 53.8" xmlns="http://www.w3.org/2000/svg"><path d="m1.71 53.58v-4.53h2.52l3.2 4.53h1.18l-3.3-4.58a3.76 3.76 0 0 0 1.58-.39 2.85 2.85 0 0 0 1.11-1.09 3.1 3.1 0 0 0 .44-1.67 2.94 2.94 0 0 0 -1-2.33 3.63 3.63 0 0 0 -2.44-.86h-4.27v10.92zm0-10.08h3.21a2.61 2.61 0 0 1 1.83.65 2.39 2.39 0 0 1 0 3.4 2.57 2.57 0 0 1 -1.83.66h-3.21zm16.77 10.08v-.85h-6.26v-4.32h6.15v-.85h-6.15v-4.06h6.26v-.84h-7.24v10.92zm5.66-10.08v10.08h1v-10.08h3.75v-.84h-8.5v.84zm7.05 10.08 1.13-2.69h6l1.13 2.69h1.13l-4.58-10.92h-1.26l-4.68 10.92zm4.17-9.92 2.64 6.39h-5.35zm8.26 9.93v-10.93h-1v10.92h1zm9.46 0v-.86h-5.56v-10.07h-1v10.92h6.54zm10.74 0a6.79 6.79 0 0 0 2.4-.43 5.08 5.08 0 0 0 3-2.9 5.68 5.68 0 0 0 0-4.25 5.3 5.3 0 0 0 -1.14-1.74 5.24 5.24 0 0 0 -1.83-1.18 6.57 6.57 0 0 0 -2.4-.43h-3.68v10.92h3.65zm-2.67-10.09h2.67a5.13 5.13 0 0 1 2.57.63 4.25 4.25 0 0 1 1.61 1.67 5.18 5.18 0 0 1 .22 4.12 4.21 4.21 0 0 1 -.92 1.46 4.05 4.05 0 0 1 -1.5 1 5.33 5.33 0 0 1 -2 .36h-2.65zm18.46 10.08v-.85h-6.27v-4.32h6.15v-.85h-6.15v-4.06h6.27v-.84h-7.25v10.92zm3.87-.27a6.1 6.1 0 0 0 2.42.47 6.27 6.27 0 0 0 1.61-.19 3.59 3.59 0 0 0 1.16-.49 2.93 2.93 0 0 0 1.17-1.55 3.13 3.13 0 0 0 .12-.86 2.52 2.52 0 0 0 -.24-1.14 2.2 2.2 0 0 0 -.63-.82 4.4 4.4 0 0 0 -.92-.57 8.41 8.41 0 0 0 -1.09-.41l-1.08-.33-1.08-.31a4.27 4.27 0 0 1 -.91-.38 1.75 1.75 0 0 1 -.62-.56 1.36 1.36 0 0 1 -.23-.8 1.78 1.78 0 0 1 .76-1.48 3.05 3.05 0 0 1 1.91-.57 4.07 4.07 0 0 1 3.27 1.37l.6-.69a5.51 5.51 0 0 0 -5.76-1.18 3.13 3.13 0 0 0 -1.36 1 2.45 2.45 0 0 0 -.5 1.54 2.33 2.33 0 0 0 .23 1.08 2.06 2.06 0 0 0 .63.77 4.12 4.12 0 0 0 .91.52 7.42 7.42 0 0 0 1.09.38l1.13.31c.38.11.74.22 1.08.35a5 5 0 0 1 .91.43 1.93 1.93 0 0 1 .64.63 1.71 1.71 0 0 1 .23.91 1.92 1.92 0 0 1 -.15.74 2.12 2.12 0 0 1 -1.4 1.23 4.73 4.73 0 0 1 -1.44.2 4.54 4.54 0 0 1 -2-.45 5.41 5.41 0 0 1 -1.54-1.14l-.63.7a4.85 4.85 0 0 0 1.76 1.27zm10.13.27v-10.92h-1v10.92zm4.39-1.35a5.75 5.75 0 0 0 1.85 1.15 6.25 6.25 0 0 0 2.26.42 6.17 6.17 0 0 0 2.43-.49 5.73 5.73 0 0 0 1.9-1.33v-3.83h-5.29v.85h4.31v2.62a5 5 0 0 1 -3.32 1.38 4.91 4.91 0 0 1 -2.41-.62 4.38 4.38 0 0 1 -1.73-1.76 5 5 0 0 1 -.64-2.5 5.15 5.15 0 0 1 .37-1.94 4.39 4.39 0 0 1 1-1.53 4.55 4.55 0 0 1 1.51-1 5.18 5.18 0 0 1 3.89 0 4.38 4.38 0 0 1 1.55 1.11l.73-.5a5.58 5.58 0 0 0 -4.3-1.86 6 6 0 0 0 -2.26.41 5.74 5.74 0 0 0 -1.85 1.19 5.15 5.15 0 0 0 -1.24 1.79 6.15 6.15 0 0 0 0 4.62 5.06 5.06 0 0 0 1.24 1.82zm12.24 1.35v-9.39l7.19 9.39h1v-10.92h-1v9.25l-7.17-9.25h-1v10.92h1zm16.39-.58a3.8 3.8 0 0 0 2.45.78 4.39 4.39 0 0 0 3.36-1.52c.53.52 1 1 1.45 1.32h1.34c-.78-.67-1.51-1.34-2.21-2a14.61 14.61 0 0 0 1.51-2.91l-.82-.33a9.64 9.64 0 0 1 -1.31 2.66c-.51-.51-1-1-1.52-1.58a21.86 21.86 0 0 1 -1.47-1.72l.5-.25.46-.26.47-.27.41-.28a3 3 0 0 0 .38-.34l.3-.35a1.41 1.41 0 0 0 .25-.4 2.44 2.44 0 0 0 .14-.46 2.16 2.16 0 0 0 .06-.51 1.87 1.87 0 0 0 -.66-1.52 2.61 2.61 0 0 0 -1.74-.55 2.77 2.77 0 0 0 -1.92.71 2.33 2.33 0 0 0 -.79 1.78 4.68 4.68 0 0 0 .92 2.5 9.51 9.51 0 0 0 -1 .59 5 5 0 0 0 -.79.67 2.72 2.72 0 0 0 -.58.91 3.38 3.38 0 0 0 -.2 1.14 2.7 2.7 0 0 0 1 2.21zm.15-3.12a2.22 2.22 0 0 1 .44-.72 4.68 4.68 0 0 1 .61-.57 7.94 7.94 0 0 1 .78-.5 22.65 22.65 0 0 0 1.55 1.85c.29.35.85.93 1.69 1.75a3.62 3.62 0 0 1 -2.71 1.31 2.67 2.67 0 0 1 -1.78-.6 2.05 2.05 0 0 1 -.73-1.67 2.32 2.32 0 0 1 .14-.86zm1.94-6.15a1.73 1.73 0 0 1 1.27-.51 1.65 1.65 0 0 1 1.07.36 1.27 1.27 0 0 1 .42 1 1.56 1.56 0 0 1 -.15.67 1.9 1.9 0 0 1 -.34.54 2.65 2.65 0 0 1 -.58.47 6.12 6.12 0 0 1 -.65.4c-.17.1-.43.24-.77.41a4 4 0 0 1 -.79-2.07 1.7 1.7 0 0 1 .51-1.28zm16.59-.23v10.08h1v-10.08h3.69v-.84h-8.48v.84zm14.32 10.08v-.85h-6.27v-4.32h6.15v-.85h-6.15v-4.06h6.27v-.84h-7.25v10.92zm4-1.36a5.6 5.6 0 0 0 1.84 1.15 6 6 0 0 0 2.27.41 5.27 5.27 0 0 0 4.18-1.94l-.84-.5a4.06 4.06 0 0 1 -1.44 1.16 4.16 4.16 0 0 1 -1.9.43 4.83 4.83 0 0 1 -2.41-.61 4.46 4.46 0 0 1 -1.72-1.7 4.83 4.83 0 0 1 -.63-2.49 5 5 0 0 1 .36-2 4.39 4.39 0 0 1 2.52-2.5 5 5 0 0 1 1.87-.36 4.31 4.31 0 0 1 1.9.44 3.78 3.78 0 0 1 1.44 1.16l.83-.52a5.2 5.2 0 0 0 -4.17-1.93 6.25 6.25 0 0 0 -2.26.42 5.64 5.64 0 0 0 -1.85 1.16 5.26 5.26 0 0 0 -1.23 1.79 6.1 6.1 0 0 0 0 4.6 5.53 5.53 0 0 0 1.24 1.83zm11.54 1.36v-5.19h7.26v5.19h1v-10.92h-1v4.88h-7.25v-4.88h-1v10.92h1z" fill="#353234" fill-rule="evenodd"/><path d="m90.52 13.53h-3.52v10.99h-2.02v-10.99h-3.51v-1.8h9.05z" fill="#353234"/><path d="m93.48 24a6.41 6.41 0 0 1 -2-1.38 6.19 6.19 0 0 1 -1.38-2 6.35 6.35 0 0 1 -.5-2.48 6.49 6.49 0 0 1 .5-2.5 6.81 6.81 0 0 1 1.38-2 6.4 6.4 0 0 1 4.52-1.91 6.64 6.64 0 0 1 2.5.5 6.94 6.94 0 0 1 2 1.36 6.94 6.94 0 0 1 1.36 2 6.49 6.49 0 0 1 .5 2.5 6.4 6.4 0 0 1 -1.86 4.51 6.81 6.81 0 0 1 -2 1.38 6.45 6.45 0 0 1 -2.5.5 6.35 6.35 0 0 1 -2.48-.5m-.62-9a4.36 4.36 0 1 0 3.1-1.3 4.38 4.38 0 0 0 -3.1 1.3" fill="#353234"/><g fill="#c50084"><path d="m51.57 1.51v20.63l-20.31-22.14v8a16.66 16.66 0 0 1 0 19.93v6.47h5.16v-19.35l20.63 22.41v-35.95z"/><path d="m78.61 29.73v4.7h-19.7v-32.88h19.7v4.68l-14.51-.01-.01 8.71h11.94v4.7h-12.08v10.11z"/><path d="m16.38 1.47a16.52 16.52 0 1 0 16.38 16.53 16.46 16.46 0 0 0 -16.38-16.53m0 27.73a11.21 11.21 0 1 1 11.23-11.2 11.21 11.21 0 0 1 -11.23 11.2"/><path d="m156.55 1.53v20.62l-20.32-22.15v8a16.62 16.62 0 0 1 0 19.93v6.44h5.17v-19.3l20.6 22.4v-35.94z"/><path d="m183.59 29.75v4.7h-19.7v-32.88h19.7v4.68l-14.51-.02-.01 8.72h11.94v4.69h-12.08v10.12z"/><path d="m121.36 1.49a16.52 16.52 0 1 0 16.38 16.51 16.44 16.44 0 0 0 -16.38-16.51m0 27.72a11.21 11.21 0 1 1 11.22-11.21 11.21 11.21 0 0 1 -11.22 11.2"/></g></svg>